<svg xmlns="http://www.w3.org/2000/svg" xmlns:xlink="http://www.w3.org/1999/xlink" width="100" zoomAndPan="magnify" viewBox="0 0 75 74.999997" height="100" preserveAspectRatio="xMidYMid meet" version="1.0"><path fill="#000000" d="M 75 37.5 C 75 58.210938 58.210938 75 37.5 75 C 16.789062 75 0 58.210938 0 37.5 C 0 16.789062 16.789062 0 37.5 0 C 58.210938 0 75 16.789062 75 37.5 " fill-opacity="1" fill-rule="nonzero"/><path fill="#ffffff" d="M 50.820312 25.644531 C 50.820312 33.027344 44.835938 39.015625 37.453125 39.015625 C 30.070312 39.015625 24.082031 33.027344 24.082031 25.644531 C 24.082031 18.261719 30.070312 12.277344 37.453125 12.277344 C 44.835938 12.277344 50.820312 18.261719 50.820312 25.644531 " fill-opacity="1" fill-rule="nonzero"/><path fill="#ffffff" d="M 37.453125 73.21875 C 46.914062 73.21875 55.554688 69.714844 62.148438 63.933594 C 60.101562 50.5625 54.070312 41.28125 37.453125 41.28125 C 21.300781 41.28125 15.046875 50.601562 12.851562 64.019531 C 19.4375 69.75 28.039062 73.21875 37.453125 73.21875 " fill-opacity="1" fill-rule="nonzero"/></svg>